<svg width="266" height="55" viewBox="0 0 266 55" fill="none" xmlns="http://www.w3.org/2000/svg">
<path d="M10.3711 2.56152L3.31055 22H0.424805L8.55469 0.671875H10.415L10.3711 2.56152ZM16.2891 22L9.21387 2.56152L9.16992 0.671875H11.0303L19.1895 22H16.2891ZM15.9229 14.1045V16.4189H3.94043V14.1045H15.9229Z" fill="#202426"/>
<path d="M24.3457 8.64062V22H21.6357V6.15039H24.2725L24.3457 8.64062ZM29.2969 6.0625L29.2822 8.58203C29.0576 8.5332 28.8428 8.50391 28.6377 8.49414C28.4424 8.47461 28.2178 8.46484 27.9639 8.46484C27.3389 8.46484 26.7871 8.5625 26.3086 8.75781C25.8301 8.95312 25.4248 9.22656 25.0928 9.57812C24.7607 9.92969 24.4971 10.3496 24.3018 10.8379C24.1162 11.3164 23.9941 11.8438 23.9355 12.4199L23.1738 12.8594C23.1738 11.9023 23.2666 11.0039 23.4521 10.1641C23.6475 9.32422 23.9453 8.58203 24.3457 7.9375C24.7461 7.2832 25.2539 6.77539 25.8691 6.41406C26.4941 6.04297 27.2363 5.85742 28.0957 5.85742C28.291 5.85742 28.5156 5.88184 28.7695 5.93066C29.0234 5.96973 29.1992 6.01367 29.2969 6.0625Z" fill="#202426"/>
<path d="M41.7773 6.15039H44.2383V21.6631C44.2383 23.0596 43.9551 24.251 43.3887 25.2373C42.8223 26.2236 42.0312 26.9707 41.0156 27.4785C40.0098 27.9961 38.8477 28.2549 37.5293 28.2549C36.9824 28.2549 36.3379 28.167 35.5957 27.9912C34.8633 27.8252 34.1406 27.5371 33.4277 27.127C32.7246 26.7266 32.1338 26.1846 31.6553 25.501L33.0762 23.8896C33.7402 24.6904 34.4336 25.2471 35.1562 25.5596C35.8887 25.8721 36.6113 26.0283 37.3242 26.0283C38.1836 26.0283 38.9258 25.8672 39.5508 25.5449C40.1758 25.2227 40.6592 24.7441 41.001 24.1094C41.3525 23.4844 41.5283 22.7129 41.5283 21.7949V9.63672L41.7773 6.15039ZM30.8643 14.251V13.9434C30.8643 12.7324 31.0059 11.6338 31.2891 10.6475C31.582 9.65137 31.9971 8.79688 32.5342 8.08398C33.0811 7.37109 33.7402 6.82422 34.5117 6.44336C35.2832 6.05273 36.1523 5.85742 37.1191 5.85742C38.1152 5.85742 38.9844 6.0332 39.7266 6.38477C40.4785 6.72656 41.1133 7.22949 41.6309 7.89355C42.1582 8.54785 42.5732 9.33887 42.876 10.2666C43.1787 11.1943 43.3887 12.2441 43.5059 13.416V14.7637C43.3984 15.9258 43.1885 16.9707 42.876 17.8984C42.5732 18.8262 42.1582 19.6172 41.6309 20.2715C41.1133 20.9258 40.4785 21.4287 39.7266 21.7803C38.9746 22.1221 38.0957 22.293 37.0898 22.293C36.1426 22.293 35.2832 22.0928 34.5117 21.6924C33.75 21.292 33.0957 20.7305 32.5488 20.0078C32.002 19.2852 31.582 18.4355 31.2891 17.459C31.0059 16.4727 30.8643 15.4033 30.8643 14.251ZM33.5742 13.9434V14.251C33.5742 15.042 33.6523 15.7842 33.8086 16.4775C33.9746 17.1709 34.2236 17.7812 34.5557 18.3086C34.8975 18.8359 35.332 19.251 35.8594 19.5537C36.3867 19.8467 37.0166 19.9932 37.749 19.9932C38.6475 19.9932 39.3896 19.8027 39.9756 19.4219C40.5615 19.041 41.0254 18.5381 41.3672 17.9131C41.7188 17.2881 41.9922 16.6094 42.1875 15.877V12.3467C42.0801 11.8096 41.9141 11.292 41.6895 10.7939C41.4746 10.2861 41.1914 9.83691 40.8398 9.44629C40.498 9.0459 40.0732 8.72852 39.5654 8.49414C39.0576 8.25977 38.4619 8.14258 37.7783 8.14258C37.0361 8.14258 36.3965 8.29883 35.8594 8.61133C35.332 8.91406 34.8975 9.33398 34.5557 9.87109C34.2236 10.3984 33.9746 11.0137 33.8086 11.7168C33.6523 12.4102 33.5742 13.1523 33.5742 13.9434Z" fill="#202426"/>
<path d="M54.9316 22.293C53.8281 22.293 52.8271 22.1074 51.9287 21.7363C51.04 21.3555 50.2734 20.8232 49.6289 20.1396C48.9941 19.4561 48.5059 18.6455 48.1641 17.708C47.8223 16.7705 47.6514 15.7451 47.6514 14.6318V14.0166C47.6514 12.7275 47.8418 11.5801 48.2227 10.5742C48.6035 9.55859 49.1211 8.69922 49.7754 7.99609C50.4297 7.29297 51.1719 6.76074 52.002 6.39941C52.832 6.03809 53.6914 5.85742 54.5801 5.85742C55.7129 5.85742 56.6895 6.05273 57.5098 6.44336C58.3398 6.83398 59.0186 7.38086 59.5459 8.08398C60.0732 8.77734 60.4639 9.59766 60.7178 10.5449C60.9717 11.4824 61.0986 12.5078 61.0986 13.6211V14.8369H49.2627V12.625H58.3887V12.4199C58.3496 11.7168 58.2031 11.0332 57.9492 10.3691C57.7051 9.70508 57.3145 9.1582 56.7773 8.72852C56.2402 8.29883 55.5078 8.08398 54.5801 8.08398C53.9648 8.08398 53.3984 8.21582 52.8809 8.47949C52.3633 8.7334 51.9189 9.11426 51.5479 9.62207C51.1768 10.1299 50.8887 10.75 50.6836 11.4824C50.4785 12.2148 50.376 13.0596 50.376 14.0166V14.6318C50.376 15.3838 50.4785 16.0918 50.6836 16.7559C50.8984 17.4102 51.2061 17.9863 51.6064 18.4844C52.0166 18.9824 52.5098 19.373 53.0859 19.6562C53.6719 19.9395 54.3359 20.0811 55.0781 20.0811C56.0352 20.0811 56.8457 19.8857 57.5098 19.4951C58.1738 19.1045 58.7549 18.582 59.2529 17.9277L60.8936 19.2314C60.5518 19.749 60.1172 20.2422 59.5898 20.7109C59.0625 21.1797 58.4131 21.5605 57.6416 21.8535C56.8799 22.1465 55.9766 22.293 54.9316 22.293Z" fill="#202426"/>
<path d="M66.9727 9.53418V22H64.2627V6.15039H66.8262L66.9727 9.53418ZM66.3281 13.4746L65.2002 13.4307C65.21 12.3467 65.3711 11.3457 65.6836 10.4277C65.9961 9.5 66.4355 8.69434 67.002 8.01074C67.5684 7.32715 68.2422 6.7998 69.0234 6.42871C69.8145 6.04785 70.6885 5.85742 71.6455 5.85742C72.4268 5.85742 73.1299 5.96484 73.7549 6.17969C74.3799 6.38477 74.9121 6.7168 75.3516 7.17578C75.8008 7.63477 76.1426 8.23047 76.377 8.96289C76.6113 9.68555 76.7285 10.5693 76.7285 11.6143V22H74.0039V11.585C74.0039 10.7549 73.8818 10.0908 73.6377 9.59277C73.3936 9.08496 73.0371 8.71875 72.5684 8.49414C72.0996 8.25977 71.5234 8.14258 70.8398 8.14258C70.166 8.14258 69.5508 8.28418 68.9941 8.56738C68.4473 8.85059 67.9736 9.24121 67.5732 9.73926C67.1826 10.2373 66.875 10.8086 66.6504 11.4531C66.4355 12.0879 66.3281 12.7617 66.3281 13.4746Z" fill="#202426"/>
<path d="M87.4805 6.15039V8.23047H78.9111V6.15039H87.4805ZM81.8115 2.29785H84.5215V18.0742C84.5215 18.6113 84.6045 19.0166 84.7705 19.29C84.9365 19.5635 85.1514 19.7441 85.415 19.832C85.6787 19.9199 85.9619 19.9639 86.2646 19.9639C86.4893 19.9639 86.7236 19.9443 86.9678 19.9053C87.2217 19.8564 87.4121 19.8174 87.5391 19.7881L87.5537 22C87.3389 22.0684 87.0557 22.1318 86.7041 22.1904C86.3623 22.2588 85.9473 22.293 85.459 22.293C84.7949 22.293 84.1846 22.1611 83.6279 21.8975C83.0713 21.6338 82.627 21.1943 82.2949 20.5791C81.9727 19.9541 81.8115 19.1143 81.8115 18.0596V2.29785Z" fill="#202426"/>
<path d="M93.6035 6.15039V22H90.8789V6.15039H93.6035ZM90.6738 1.94629C90.6738 1.50684 90.8057 1.13574 91.0693 0.833008C91.3428 0.530273 91.7432 0.378906 92.2705 0.378906C92.7881 0.378906 93.1836 0.530273 93.457 0.833008C93.7402 1.13574 93.8818 1.50684 93.8818 1.94629C93.8818 2.36621 93.7402 2.72754 93.457 3.03027C93.1836 3.32324 92.7881 3.46973 92.2705 3.46973C91.7432 3.46973 91.3428 3.32324 91.0693 3.03027C90.8057 2.72754 90.6738 2.36621 90.6738 1.94629Z" fill="#202426"/>
<path d="M100.664 9.53418V22H97.9541V6.15039H100.518L100.664 9.53418ZM100.02 13.4746L98.8916 13.4307C98.9014 12.3467 99.0625 11.3457 99.375 10.4277C99.6875 9.5 100.127 8.69434 100.693 8.01074C101.26 7.32715 101.934 6.7998 102.715 6.42871C103.506 6.04785 104.38 5.85742 105.337 5.85742C106.118 5.85742 106.821 5.96484 107.446 6.17969C108.071 6.38477 108.604 6.7168 109.043 7.17578C109.492 7.63477 109.834 8.23047 110.068 8.96289C110.303 9.68555 110.42 10.5693 110.42 11.6143V22H107.695V11.585C107.695 10.7549 107.573 10.0908 107.329 9.59277C107.085 9.08496 106.729 8.71875 106.26 8.49414C105.791 8.25977 105.215 8.14258 104.531 8.14258C103.857 8.14258 103.242 8.28418 102.686 8.56738C102.139 8.85059 101.665 9.24121 101.265 9.73926C100.874 10.2373 100.566 10.8086 100.342 11.4531C100.127 12.0879 100.02 12.7617 100.02 13.4746Z" fill="#202426"/>
<path d="M123.882 19.29V11.1309C123.882 10.5059 123.755 9.96387 123.501 9.50488C123.257 9.03613 122.886 8.6748 122.388 8.4209C121.89 8.16699 121.274 8.04004 120.542 8.04004C119.858 8.04004 119.258 8.15723 118.74 8.3916C118.232 8.62598 117.832 8.93359 117.539 9.31445C117.256 9.69531 117.114 10.1055 117.114 10.5449H114.404C114.404 9.97852 114.551 9.41699 114.844 8.86035C115.137 8.30371 115.557 7.80078 116.104 7.35156C116.66 6.89258 117.324 6.53125 118.096 6.26758C118.877 5.99414 119.746 5.85742 120.703 5.85742C121.855 5.85742 122.871 6.05273 123.75 6.44336C124.639 6.83398 125.332 7.4248 125.83 8.21582C126.338 8.99707 126.592 9.97852 126.592 11.1602V18.543C126.592 19.0703 126.636 19.6318 126.724 20.2275C126.821 20.8232 126.963 21.3359 127.148 21.7656V22H124.321C124.185 21.6875 124.077 21.2725 123.999 20.7549C123.921 20.2275 123.882 19.7393 123.882 19.29ZM124.351 12.3906L124.38 14.2949H121.641C120.869 14.2949 120.181 14.3584 119.575 14.4854C118.97 14.6025 118.462 14.7832 118.052 15.0273C117.642 15.2715 117.329 15.5791 117.114 15.9502C116.899 16.3115 116.792 16.7363 116.792 17.2246C116.792 17.7227 116.904 18.1768 117.129 18.5869C117.354 18.9971 117.69 19.3242 118.14 19.5684C118.599 19.8027 119.16 19.9199 119.824 19.9199C120.654 19.9199 121.387 19.7441 122.021 19.3926C122.656 19.041 123.159 18.6113 123.53 18.1035C123.911 17.5957 124.116 17.1025 124.146 16.624L125.303 17.9277C125.234 18.3379 125.049 18.792 124.746 19.29C124.443 19.7881 124.038 20.2666 123.53 20.7256C123.032 21.1748 122.437 21.5508 121.743 21.8535C121.06 22.1465 120.288 22.293 119.429 22.293C118.354 22.293 117.412 22.083 116.602 21.6631C115.801 21.2432 115.176 20.6816 114.727 19.9785C114.287 19.2656 114.067 18.4697 114.067 17.5908C114.067 16.7412 114.233 15.9941 114.565 15.3496C114.897 14.6953 115.376 14.1533 116.001 13.7236C116.626 13.2842 117.378 12.9521 118.257 12.7275C119.136 12.5029 120.117 12.3906 121.201 12.3906H124.351Z" fill="#202426"/>
<path d="M146.572 13.6357H140.874V11.3359H146.572C147.676 11.3359 148.569 11.1602 149.253 10.8086C149.937 10.457 150.435 9.96875 150.747 9.34375C151.069 8.71875 151.23 8.00586 151.23 7.20508C151.23 6.47266 151.069 5.78418 150.747 5.13965C150.435 4.49512 149.937 3.97754 149.253 3.58691C148.569 3.18652 147.676 2.98633 146.572 2.98633H141.533V22H138.706V0.671875H146.572C148.184 0.671875 149.546 0.950195 150.659 1.50684C151.772 2.06348 152.617 2.83496 153.193 3.82129C153.77 4.79785 154.058 5.91602 154.058 7.17578C154.058 8.54297 153.77 9.70996 153.193 10.6768C152.617 11.6436 151.772 12.3809 150.659 12.8887C149.546 13.3867 148.184 13.6357 146.572 13.6357Z" fill="#202426"/>
<path d="M159.932 8.64062V22H157.222V6.15039H159.858L159.932 8.64062ZM164.883 6.0625L164.868 8.58203C164.644 8.5332 164.429 8.50391 164.224 8.49414C164.028 8.47461 163.804 8.46484 163.55 8.46484C162.925 8.46484 162.373 8.5625 161.895 8.75781C161.416 8.95312 161.011 9.22656 160.679 9.57812C160.347 9.92969 160.083 10.3496 159.888 10.8379C159.702 11.3164 159.58 11.8438 159.521 12.4199L158.76 12.8594C158.76 11.9023 158.853 11.0039 159.038 10.1641C159.233 9.32422 159.531 8.58203 159.932 7.9375C160.332 7.2832 160.84 6.77539 161.455 6.41406C162.08 6.04297 162.822 5.85742 163.682 5.85742C163.877 5.85742 164.102 5.88184 164.355 5.93066C164.609 5.96973 164.785 6.01367 164.883 6.0625Z" fill="#202426"/>
<path d="M166.377 14.251V13.9141C166.377 12.7715 166.543 11.7119 166.875 10.7354C167.207 9.74902 167.686 8.89453 168.311 8.17188C168.936 7.43945 169.692 6.87305 170.581 6.47266C171.47 6.0625 172.466 5.85742 173.569 5.85742C174.683 5.85742 175.684 6.0625 176.572 6.47266C177.471 6.87305 178.232 7.43945 178.857 8.17188C179.492 8.89453 179.976 9.74902 180.308 10.7354C180.64 11.7119 180.806 12.7715 180.806 13.9141V14.251C180.806 15.3936 180.64 16.4531 180.308 17.4297C179.976 18.4062 179.492 19.2607 178.857 19.9932C178.232 20.7158 177.476 21.2822 176.587 21.6924C175.708 22.0928 174.712 22.293 173.599 22.293C172.485 22.293 171.484 22.0928 170.596 21.6924C169.707 21.2822 168.945 20.7158 168.311 19.9932C167.686 19.2607 167.207 18.4062 166.875 17.4297C166.543 16.4531 166.377 15.3936 166.377 14.251ZM169.087 13.9141V14.251C169.087 15.042 169.18 15.7891 169.365 16.4922C169.551 17.1855 169.829 17.8008 170.2 18.3379C170.581 18.875 171.055 19.2998 171.621 19.6123C172.188 19.915 172.847 20.0664 173.599 20.0664C174.341 20.0664 174.99 19.915 175.547 19.6123C176.113 19.2998 176.582 18.875 176.953 18.3379C177.324 17.8008 177.603 17.1855 177.788 16.4922C177.983 15.7891 178.081 15.042 178.081 14.251V13.9141C178.081 13.1328 177.983 12.3955 177.788 11.7021C177.603 10.999 177.319 10.3789 176.938 9.8418C176.567 9.29492 176.099 8.86523 175.532 8.55273C174.976 8.24023 174.321 8.08398 173.569 8.08398C172.827 8.08398 172.173 8.24023 171.606 8.55273C171.05 8.86523 170.581 9.29492 170.2 9.8418C169.829 10.3789 169.551 10.999 169.365 11.7021C169.18 12.3955 169.087 13.1328 169.087 13.9141Z" fill="#202426"/>
<path d="M194.473 6.15039H196.934V21.6631C196.934 23.0596 196.65 24.251 196.084 25.2373C195.518 26.2236 194.727 26.9707 193.711 27.4785C192.705 27.9961 191.543 28.2549 190.225 28.2549C189.678 28.2549 189.033 28.167 188.291 27.9912C187.559 27.8252 186.836 27.5371 186.123 27.127C185.42 26.7266 184.829 26.1846 184.351 25.501L185.771 23.8896C186.436 24.6904 187.129 25.2471 187.852 25.5596C188.584 25.8721 189.307 26.0283 190.02 26.0283C190.879 26.0283 191.621 25.8672 192.246 25.5449C192.871 25.2227 193.354 24.7441 193.696 24.1094C194.048 23.4844 194.224 22.7129 194.224 21.7949V9.63672L194.473 6.15039ZM183.56 14.251V13.9434C183.56 12.7324 183.701 11.6338 183.984 10.6475C184.277 9.65137 184.692 8.79688 185.229 8.08398C185.776 7.37109 186.436 6.82422 187.207 6.44336C187.979 6.05273 188.848 5.85742 189.814 5.85742C190.811 5.85742 191.68 6.0332 192.422 6.38477C193.174 6.72656 193.809 7.22949 194.326 7.89355C194.854 8.54785 195.269 9.33887 195.571 10.2666C195.874 11.1943 196.084 12.2441 196.201 13.416V14.7637C196.094 15.9258 195.884 16.9707 195.571 17.8984C195.269 18.8262 194.854 19.6172 194.326 20.2715C193.809 20.9258 193.174 21.4287 192.422 21.7803C191.67 22.1221 190.791 22.293 189.785 22.293C188.838 22.293 187.979 22.0928 187.207 21.6924C186.445 21.292 185.791 20.7305 185.244 20.0078C184.697 19.2852 184.277 18.4355 183.984 17.459C183.701 16.4727 183.56 15.4033 183.56 14.251ZM186.27 13.9434V14.251C186.27 15.042 186.348 15.7842 186.504 16.4775C186.67 17.1709 186.919 17.7812 187.251 18.3086C187.593 18.8359 188.027 19.251 188.555 19.5537C189.082 19.8467 189.712 19.9932 190.444 19.9932C191.343 19.9932 192.085 19.8027 192.671 19.4219C193.257 19.041 193.721 18.5381 194.062 17.9131C194.414 17.2881 194.688 16.6094 194.883 15.877V12.3467C194.775 11.8096 194.609 11.292 194.385 10.7939C194.17 10.2861 193.887 9.83691 193.535 9.44629C193.193 9.0459 192.769 8.72852 192.261 8.49414C191.753 8.25977 191.157 8.14258 190.474 8.14258C189.731 8.14258 189.092 8.29883 188.555 8.61133C188.027 8.91406 187.593 9.33398 187.251 9.87109C186.919 10.3984 186.67 11.0137 186.504 11.7168C186.348 12.4102 186.27 13.1523 186.27 13.9434Z" fill="#202426"/>
<path d="M203.76 8.64062V22H201.05V6.15039H203.687L203.76 8.64062ZM208.711 6.0625L208.696 8.58203C208.472 8.5332 208.257 8.50391 208.052 8.49414C207.856 8.47461 207.632 8.46484 207.378 8.46484C206.753 8.46484 206.201 8.5625 205.723 8.75781C205.244 8.95312 204.839 9.22656 204.507 9.57812C204.175 9.92969 203.911 10.3496 203.716 10.8379C203.53 11.3164 203.408 11.8438 203.35 12.4199L202.588 12.8594C202.588 11.9023 202.681 11.0039 202.866 10.1641C203.062 9.32422 203.359 8.58203 203.76 7.9375C204.16 7.2832 204.668 6.77539 205.283 6.41406C205.908 6.04297 206.65 5.85742 207.51 5.85742C207.705 5.85742 207.93 5.88184 208.184 5.93066C208.438 5.96973 208.613 6.01367 208.711 6.0625Z" fill="#202426"/>
<path d="M219.976 19.29V11.1309C219.976 10.5059 219.849 9.96387 219.595 9.50488C219.351 9.03613 218.979 8.6748 218.481 8.4209C217.983 8.16699 217.368 8.04004 216.636 8.04004C215.952 8.04004 215.352 8.15723 214.834 8.3916C214.326 8.62598 213.926 8.93359 213.633 9.31445C213.35 9.69531 213.208 10.1055 213.208 10.5449H210.498C210.498 9.97852 210.645 9.41699 210.938 8.86035C211.23 8.30371 211.65 7.80078 212.197 7.35156C212.754 6.89258 213.418 6.53125 214.189 6.26758C214.971 5.99414 215.84 5.85742 216.797 5.85742C217.949 5.85742 218.965 6.05273 219.844 6.44336C220.732 6.83398 221.426 7.4248 221.924 8.21582C222.432 8.99707 222.686 9.97852 222.686 11.1602V18.543C222.686 19.0703 222.729 19.6318 222.817 20.2275C222.915 20.8232 223.057 21.3359 223.242 21.7656V22H220.415C220.278 21.6875 220.171 21.2725 220.093 20.7549C220.015 20.2275 219.976 19.7393 219.976 19.29ZM220.444 12.3906L220.474 14.2949H217.734C216.963 14.2949 216.274 14.3584 215.669 14.4854C215.063 14.6025 214.556 14.7832 214.146 15.0273C213.735 15.2715 213.423 15.5791 213.208 15.9502C212.993 16.3115 212.886 16.7363 212.886 17.2246C212.886 17.7227 212.998 18.1768 213.223 18.5869C213.447 18.9971 213.784 19.3242 214.233 19.5684C214.692 19.8027 215.254 19.9199 215.918 19.9199C216.748 19.9199 217.48 19.7441 218.115 19.3926C218.75 19.041 219.253 18.6113 219.624 18.1035C220.005 17.5957 220.21 17.1025 220.239 16.624L221.396 17.9277C221.328 18.3379 221.143 18.792 220.84 19.29C220.537 19.7881 220.132 20.2666 219.624 20.7256C219.126 21.1748 218.53 21.5508 217.837 21.8535C217.153 22.1465 216.382 22.293 215.522 22.293C214.448 22.293 213.506 22.083 212.695 21.6631C211.895 21.2432 211.27 20.6816 210.82 19.9785C210.381 19.2656 210.161 18.4697 210.161 17.5908C210.161 16.7412 210.327 15.9941 210.659 15.3496C210.991 14.6953 211.47 14.1533 212.095 13.7236C212.72 13.2842 213.472 12.9521 214.351 12.7275C215.229 12.5029 216.211 12.3906 217.295 12.3906H220.444Z" fill="#202426"/>
<path d="M229.644 9.2998V22H226.919V6.15039H229.497L229.644 9.2998ZM229.087 13.4746L227.827 13.4307C227.837 12.3467 227.979 11.3457 228.252 10.4277C228.525 9.5 228.931 8.69434 229.468 8.01074C230.005 7.32715 230.674 6.7998 231.475 6.42871C232.275 6.04785 233.203 5.85742 234.258 5.85742C235 5.85742 235.684 5.96484 236.309 6.17969C236.934 6.38477 237.476 6.71191 237.935 7.16113C238.394 7.61035 238.75 8.18652 239.004 8.88965C239.258 9.59277 239.385 10.4424 239.385 11.4385V22H236.675V11.5703C236.675 10.7402 236.533 10.0762 236.25 9.57812C235.977 9.08008 235.586 8.71875 235.078 8.49414C234.57 8.25977 233.975 8.14258 233.291 8.14258C232.49 8.14258 231.821 8.28418 231.284 8.56738C230.747 8.85059 230.317 9.24121 229.995 9.73926C229.673 10.2373 229.438 10.8086 229.292 11.4531C229.155 12.0879 229.087 12.7617 229.087 13.4746ZM239.355 11.9805L237.539 12.5371C237.549 11.668 237.69 10.833 237.964 10.0322C238.247 9.23145 238.652 8.51855 239.18 7.89355C239.717 7.26855 240.376 6.77539 241.157 6.41406C241.938 6.04297 242.832 5.85742 243.838 5.85742C244.688 5.85742 245.439 5.96973 246.094 6.19434C246.758 6.41895 247.314 6.76562 247.764 7.23438C248.223 7.69336 248.569 8.28418 248.804 9.00684C249.038 9.72949 249.155 10.5889 249.155 11.585V22H246.431V11.5557C246.431 10.667 246.289 9.97852 246.006 9.49023C245.732 8.99219 245.342 8.64551 244.834 8.4502C244.336 8.24512 243.74 8.14258 243.047 8.14258C242.451 8.14258 241.924 8.24512 241.465 8.4502C241.006 8.65527 240.62 8.93848 240.308 9.2998C239.995 9.65137 239.756 10.0566 239.59 10.5156C239.434 10.9746 239.355 11.4629 239.355 11.9805Z" fill="#202426"/>
<path d="M262.603 19.29V11.1309C262.603 10.5059 262.476 9.96387 262.222 9.50488C261.978 9.03613 261.606 8.6748 261.108 8.4209C260.61 8.16699 259.995 8.04004 259.263 8.04004C258.579 8.04004 257.979 8.15723 257.461 8.3916C256.953 8.62598 256.553 8.93359 256.26 9.31445C255.977 9.69531 255.835 10.1055 255.835 10.5449H253.125C253.125 9.97852 253.271 9.41699 253.564 8.86035C253.857 8.30371 254.277 7.80078 254.824 7.35156C255.381 6.89258 256.045 6.53125 256.816 6.26758C257.598 5.99414 258.467 5.85742 259.424 5.85742C260.576 5.85742 261.592 6.05273 262.471 6.44336C263.359 6.83398 264.053 7.4248 264.551 8.21582C265.059 8.99707 265.312 9.97852 265.312 11.1602V18.543C265.312 19.0703 265.356 19.6318 265.444 20.2275C265.542 20.8232 265.684 21.3359 265.869 21.7656V22H263.042C262.905 21.6875 262.798 21.2725 262.72 20.7549C262.642 20.2275 262.603 19.7393 262.603 19.29ZM263.071 12.3906L263.101 14.2949H260.361C259.59 14.2949 258.901 14.3584 258.296 14.4854C257.69 14.6025 257.183 14.7832 256.772 15.0273C256.362 15.2715 256.05 15.5791 255.835 15.9502C255.62 16.3115 255.513 16.7363 255.513 17.2246C255.513 17.7227 255.625 18.1768 255.85 18.5869C256.074 18.9971 256.411 19.3242 256.86 19.5684C257.319 19.8027 257.881 19.9199 258.545 19.9199C259.375 19.9199 260.107 19.7441 260.742 19.3926C261.377 19.041 261.88 18.6113 262.251 18.1035C262.632 17.5957 262.837 17.1025 262.866 16.624L264.023 17.9277C263.955 18.3379 263.77 18.792 263.467 19.29C263.164 19.7881 262.759 20.2666 262.251 20.7256C261.753 21.1748 261.157 21.5508 260.464 21.8535C259.78 22.1465 259.009 22.293 258.149 22.293C257.075 22.293 256.133 22.083 255.322 21.6631C254.521 21.2432 253.896 20.6816 253.447 19.9785C253.008 19.2656 252.788 18.4697 252.788 17.5908C252.788 16.7412 252.954 15.9941 253.286 15.3496C253.618 14.6953 254.097 14.1533 254.722 13.7236C255.347 13.2842 256.099 12.9521 256.978 12.7275C257.856 12.5029 258.838 12.3906 259.922 12.3906H263.071Z" fill="#202426"/>
<path d="M2.72461 50L5.48828 35.7812H6.89453L4.12109 50H2.72461ZM6.69922 50L9.47266 35.7812H10.8691L8.0957 50H6.69922ZM12.0605 41.2012H1.9043V39.8438H12.0605V41.2012ZM11.3281 45.9961H1.16211V44.6484H11.3281V45.9961Z" fill="#202426"/>
<path d="M14.6289 35.7812L18.3203 42.9199L22.0215 35.7812H24.1602L19.2578 44.6875V50H17.373V44.6875L12.4707 35.7812H14.6289Z" fill="#202426"/>
<path d="M24.5898 44.834V44.6094C24.5898 43.8477 24.7005 43.1413 24.9219 42.4902C25.1432 41.8327 25.4622 41.263 25.8789 40.7812C26.2956 40.293 26.8001 39.9154 27.3926 39.6484C27.985 39.375 28.6491 39.2383 29.3848 39.2383C30.127 39.2383 30.7943 39.375 31.3867 39.6484C31.9857 39.9154 32.4935 40.293 32.9102 40.7812C33.3333 41.263 33.6556 41.8327 33.877 42.4902C34.0983 43.1413 34.209 43.8477 34.209 44.6094V44.834C34.209 45.5957 34.0983 46.3021 33.877 46.9531C33.6556 47.6042 33.3333 48.1738 32.9102 48.6621C32.4935 49.1439 31.9889 49.5215 31.3965 49.7949C30.8105 50.0618 30.1465 50.1953 29.4043 50.1953C28.6621 50.1953 27.9948 50.0618 27.4023 49.7949C26.8099 49.5215 26.3021 49.1439 25.8789 48.6621C25.4622 48.1738 25.1432 47.6042 24.9219 46.9531C24.7005 46.3021 24.5898 45.5957 24.5898 44.834ZM26.3965 44.6094V44.834C26.3965 45.3613 26.4583 45.8594 26.582 46.3281C26.7057 46.7904 26.8913 47.2005 27.1387 47.5586C27.3926 47.9167 27.7083 48.1999 28.0859 48.4082C28.4635 48.61 28.903 48.7109 29.4043 48.7109C29.8991 48.7109 30.332 48.61 30.7031 48.4082C31.0807 48.1999 31.3932 47.9167 31.6406 47.5586C31.888 47.2005 32.0736 46.7904 32.1973 46.3281C32.3275 45.8594 32.3926 45.3613 32.3926 44.834V44.6094C32.3926 44.0885 32.3275 43.597 32.1973 43.1348C32.0736 42.666 31.8848 42.2526 31.6309 41.8945C31.3835 41.5299 31.071 41.2435 30.6934 41.0352C30.3223 40.8268 29.8861 40.7227 29.3848 40.7227C28.89 40.7227 28.4538 40.8268 28.0762 41.0352C27.7051 41.2435 27.3926 41.5299 27.1387 41.8945C26.8913 42.2526 26.7057 42.666 26.582 43.1348C26.4583 43.597 26.3965 44.0885 26.3965 44.6094Z" fill="#202426"/>
<path d="M41.9922 44.4238H38.1934V42.8906H41.9922C42.7279 42.8906 43.3236 42.7734 43.7793 42.5391C44.235 42.3047 44.5671 41.9792 44.7754 41.5625C44.9902 41.1458 45.0977 40.6706 45.0977 40.1367C45.0977 39.6484 44.9902 39.1895 44.7754 38.7598C44.5671 38.3301 44.235 37.985 43.7793 37.7246C43.3236 37.4577 42.7279 37.3242 41.9922 37.3242H38.6328V50H36.748V35.7812H41.9922C43.0664 35.7812 43.9746 35.9668 44.7168 36.3379C45.459 36.709 46.0221 37.2233 46.4062 37.8809C46.7904 38.5319 46.9824 39.2773 46.9824 40.1172C46.9824 41.0286 46.7904 41.8066 46.4062 42.4512C46.0221 43.0957 45.459 43.5872 44.7168 43.9258C43.9746 44.2578 43.0664 44.4238 41.9922 44.4238Z" fill="#202426"/>
<path d="M50.8984 41.0938V50H49.0918V39.4336H50.8496L50.8984 41.0938ZM54.1992 39.375L54.1895 41.0547C54.0397 41.0221 53.8965 41.0026 53.7598 40.9961C53.6296 40.9831 53.4798 40.9766 53.3105 40.9766C52.8939 40.9766 52.526 41.0417 52.207 41.1719C51.888 41.3021 51.6178 41.4844 51.3965 41.7188C51.1751 41.9531 50.9993 42.2331 50.8691 42.5586C50.7454 42.8776 50.6641 43.2292 50.625 43.6133L50.1172 43.9062C50.1172 43.2682 50.179 42.6693 50.3027 42.1094C50.4329 41.5495 50.6315 41.0547 50.8984 40.625C51.1654 40.1888 51.5039 39.8503 51.9141 39.6094C52.3307 39.362 52.8255 39.2383 53.3984 39.2383C53.5286 39.2383 53.6784 39.2546 53.8477 39.2871C54.0169 39.3132 54.1341 39.3424 54.1992 39.375Z" fill="#202426"/>
<path d="M55.1953 44.834V44.6094C55.1953 43.8477 55.306 43.1413 55.5273 42.4902C55.7487 41.8327 56.0677 41.263 56.4844 40.7812C56.901 40.293 57.4056 39.9154 57.998 39.6484C58.5905 39.375 59.2546 39.2383 59.9902 39.2383C60.7324 39.2383 61.3997 39.375 61.9922 39.6484C62.5911 39.9154 63.099 40.293 63.5156 40.7812C63.9388 41.263 64.2611 41.8327 64.4824 42.4902C64.7038 43.1413 64.8145 43.8477 64.8145 44.6094V44.834C64.8145 45.5957 64.7038 46.3021 64.4824 46.9531C64.2611 47.6042 63.9388 48.1738 63.5156 48.6621C63.099 49.1439 62.5944 49.5215 62.002 49.7949C61.416 50.0618 60.752 50.1953 60.0098 50.1953C59.2676 50.1953 58.6003 50.0618 58.0078 49.7949C57.4154 49.5215 56.9076 49.1439 56.4844 48.6621C56.0677 48.1738 55.7487 47.6042 55.5273 46.9531C55.306 46.3021 55.1953 45.5957 55.1953 44.834ZM57.002 44.6094V44.834C57.002 45.3613 57.0638 45.8594 57.1875 46.3281C57.3112 46.7904 57.4967 47.2005 57.7441 47.5586C57.998 47.9167 58.3138 48.1999 58.6914 48.4082C59.069 48.61 59.5085 48.7109 60.0098 48.7109C60.5046 48.7109 60.9375 48.61 61.3086 48.4082C61.6862 48.1999 61.9987 47.9167 62.2461 47.5586C62.4935 47.2005 62.679 46.7904 62.8027 46.3281C62.9329 45.8594 62.998 45.3613 62.998 44.834V44.6094C62.998 44.0885 62.9329 43.597 62.8027 43.1348C62.679 42.666 62.4902 42.2526 62.2363 41.8945C61.9889 41.5299 61.6764 41.2435 61.2988 41.0352C60.9277 40.8268 60.4915 40.7227 59.9902 40.7227C59.4954 40.7227 59.0592 40.8268 58.6816 41.0352C58.3105 41.2435 57.998 41.5299 57.7441 41.8945C57.4967 42.2526 57.3112 42.666 57.1875 43.1348C57.0638 43.597 57.002 44.0885 57.002 44.6094Z" fill="#202426"/>
<path d="M73.9258 39.4336H75.5664V49.7754C75.5664 50.7064 75.3776 51.5007 75 52.1582C74.6224 52.8158 74.0951 53.3138 73.418 53.6523C72.7474 53.9974 71.9727 54.1699 71.0938 54.1699C70.7292 54.1699 70.2995 54.1113 69.8047 53.9941C69.3164 53.8835 68.8346 53.6914 68.3594 53.418C67.8906 53.151 67.4967 52.7897 67.1777 52.334L68.125 51.2598C68.5677 51.7936 69.0299 52.1647 69.5117 52.373C70 52.5814 70.4818 52.6855 70.957 52.6855C71.5299 52.6855 72.0247 52.5781 72.4414 52.3633C72.8581 52.1484 73.1803 51.8294 73.4082 51.4062C73.6426 50.9896 73.7598 50.4753 73.7598 49.8633V41.7578L73.9258 39.4336ZM66.6504 44.834V44.6289C66.6504 43.8216 66.7448 43.0892 66.9336 42.4316C67.1289 41.7676 67.4056 41.1979 67.7637 40.7227C68.1283 40.2474 68.5677 39.8828 69.082 39.6289C69.5964 39.3685 70.1758 39.2383 70.8203 39.2383C71.4844 39.2383 72.0638 39.3555 72.5586 39.5898C73.0599 39.8177 73.4831 40.153 73.8281 40.5957C74.1797 41.0319 74.4564 41.5592 74.6582 42.1777C74.86 42.7962 75 43.4961 75.0781 44.2773V45.1758C75.0065 45.9505 74.8665 46.6471 74.6582 47.2656C74.4564 47.8841 74.1797 48.4115 73.8281 48.8477C73.4831 49.2839 73.0599 49.6191 72.5586 49.8535C72.0573 50.0814 71.4714 50.1953 70.8008 50.1953C70.1693 50.1953 69.5964 50.0618 69.082 49.7949C68.5742 49.528 68.138 49.1536 67.7734 48.6719C67.4089 48.1901 67.1289 47.6237 66.9336 46.9727C66.7448 46.3151 66.6504 45.6022 66.6504 44.834ZM68.457 44.6289V44.834C68.457 45.3613 68.5091 45.8561 68.6133 46.3184C68.724 46.7806 68.89 47.1875 69.1113 47.5391C69.3392 47.8906 69.6289 48.1673 69.9805 48.3691C70.332 48.5645 70.752 48.6621 71.2402 48.6621C71.8392 48.6621 72.334 48.5352 72.7246 48.2812C73.1152 48.0273 73.4245 47.6921 73.6523 47.2754C73.8867 46.8587 74.069 46.4062 74.1992 45.918V43.5645C74.1276 43.2064 74.0169 42.8613 73.8672 42.5293C73.724 42.1908 73.5352 41.8913 73.3008 41.6309C73.0729 41.3639 72.7897 41.1523 72.4512 40.9961C72.1126 40.8398 71.7155 40.7617 71.2598 40.7617C70.765 40.7617 70.3385 40.8659 69.9805 41.0742C69.6289 41.276 69.3392 41.556 69.1113 41.9141C68.89 42.2656 68.724 42.6758 68.6133 43.1445C68.5091 43.6068 68.457 44.1016 68.457 44.6289Z" fill="#202426"/>
<path d="M80.1172 41.0938V50H78.3105V39.4336H80.0684L80.1172 41.0938ZM83.418 39.375L83.4082 41.0547C83.2585 41.0221 83.1152 41.0026 82.9785 40.9961C82.8483 40.9831 82.6986 40.9766 82.5293 40.9766C82.1126 40.9766 81.7448 41.0417 81.4258 41.1719C81.1068 41.3021 80.8366 41.4844 80.6152 41.7188C80.3939 41.9531 80.2181 42.2331 80.0879 42.5586C79.9642 42.8776 79.8828 43.2292 79.8438 43.6133L79.3359 43.9062C79.3359 43.2682 79.3978 42.6693 79.5215 42.1094C79.6517 41.5495 79.8503 41.0547 80.1172 40.625C80.3841 40.1888 80.7227 39.8503 81.1328 39.6094C81.5495 39.362 82.0443 39.2383 82.6172 39.2383C82.7474 39.2383 82.8971 39.2546 83.0664 39.2871C83.2357 39.3132 83.3529 39.3424 83.418 39.375Z" fill="#202426"/>
<path d="M90.9277 48.1934V42.7539C90.9277 42.3372 90.8431 41.9759 90.6738 41.6699C90.5111 41.3574 90.2637 41.1165 89.9316 40.9473C89.5996 40.778 89.1895 40.6934 88.7012 40.6934C88.2454 40.6934 87.8451 40.7715 87.5 40.9277C87.1615 41.084 86.8945 41.2891 86.6992 41.543C86.5104 41.7969 86.416 42.0703 86.416 42.3633H84.6094C84.6094 41.9857 84.707 41.6113 84.9023 41.2402C85.0977 40.8691 85.3776 40.5339 85.7422 40.2344C86.1133 39.9284 86.556 39.6875 87.0703 39.5117C87.5911 39.3294 88.1706 39.2383 88.8086 39.2383C89.5768 39.2383 90.2539 39.3685 90.8398 39.6289C91.4323 39.8893 91.8945 40.2832 92.2266 40.8105C92.5651 41.3314 92.7344 41.9857 92.7344 42.7734V47.6953C92.7344 48.0469 92.7637 48.4212 92.8223 48.8184C92.8874 49.2155 92.9818 49.5573 93.1055 49.8438V50H91.2207C91.1296 49.7917 91.0579 49.515 91.0059 49.1699C90.9538 48.8184 90.9277 48.4928 90.9277 48.1934ZM91.2402 43.5938L91.2598 44.8633H89.4336C88.9193 44.8633 88.4603 44.9056 88.0566 44.9902C87.653 45.0684 87.3145 45.1888 87.041 45.3516C86.7676 45.5143 86.5592 45.7194 86.416 45.9668C86.2728 46.2077 86.2012 46.4909 86.2012 46.8164C86.2012 47.1484 86.276 47.4512 86.4258 47.7246C86.5755 47.998 86.8001 48.2161 87.0996 48.3789C87.4056 48.5352 87.7799 48.6133 88.2227 48.6133C88.776 48.6133 89.2643 48.4961 89.6875 48.2617C90.1107 48.0273 90.446 47.7409 90.6934 47.4023C90.9473 47.0638 91.084 46.735 91.1035 46.416L91.875 47.2852C91.8294 47.5586 91.7057 47.8613 91.5039 48.1934C91.3021 48.5254 91.0319 48.8444 90.6934 49.1504C90.3613 49.4499 89.9642 49.7005 89.502 49.9023C89.0462 50.0977 88.5319 50.1953 87.959 50.1953C87.2428 50.1953 86.6146 50.0553 86.0742 49.7754C85.5404 49.4954 85.1237 49.1211 84.8242 48.6523C84.5312 48.1771 84.3848 47.6465 84.3848 47.0605C84.3848 46.4941 84.4954 45.9961 84.7168 45.5664C84.9382 45.1302 85.2572 44.7689 85.6738 44.4824C86.0905 44.1895 86.5918 43.9681 87.1777 43.8184C87.7637 43.6686 88.418 43.5938 89.1406 43.5938H91.2402Z" fill="#202426"/>
<path d="M97.373 41.5332V50H95.5566V39.4336H97.2754L97.373 41.5332ZM97.002 44.3164L96.1621 44.2871C96.1686 43.5645 96.263 42.8971 96.4453 42.2852C96.6276 41.6667 96.8978 41.1296 97.2559 40.6738C97.6139 40.2181 98.0599 39.8665 98.5938 39.6191C99.1276 39.3652 99.7461 39.2383 100.449 39.2383C100.944 39.2383 101.4 39.3099 101.816 39.4531C102.233 39.5898 102.594 39.8079 102.9 40.1074C103.206 40.4069 103.444 40.791 103.613 41.2598C103.783 41.7285 103.867 42.2949 103.867 42.959V50H102.061V43.0469C102.061 42.4935 101.966 42.0508 101.777 41.7188C101.595 41.3867 101.335 41.1458 100.996 40.9961C100.658 40.8398 100.26 40.7617 99.8047 40.7617C99.2708 40.7617 98.8249 40.8561 98.4668 41.0449C98.1087 41.2337 97.8223 41.4941 97.6074 41.8262C97.3926 42.1582 97.2363 42.5391 97.1387 42.9688C97.0475 43.3919 97.002 43.8411 97.002 44.3164ZM103.848 43.3203L102.637 43.6914C102.643 43.112 102.738 42.5553 102.92 42.0215C103.109 41.4876 103.379 41.0124 103.73 40.5957C104.089 40.179 104.528 39.8503 105.049 39.6094C105.57 39.362 106.165 39.2383 106.836 39.2383C107.402 39.2383 107.904 39.3132 108.34 39.4629C108.783 39.6126 109.154 39.8438 109.453 40.1562C109.759 40.4622 109.99 40.8561 110.146 41.3379C110.303 41.8197 110.381 42.3926 110.381 43.0566V50H108.564V43.0371C108.564 42.4447 108.47 41.9857 108.281 41.6602C108.099 41.3281 107.839 41.097 107.5 40.9668C107.168 40.8301 106.771 40.7617 106.309 40.7617C105.911 40.7617 105.56 40.8301 105.254 40.9668C104.948 41.1035 104.691 41.2923 104.482 41.5332C104.274 41.7676 104.115 42.0378 104.004 42.3438C103.9 42.6497 103.848 42.9753 103.848 43.3203Z" fill="#202426"/>
<path d="M112.637 44.834V44.6094C112.637 43.8477 112.747 43.1413 112.969 42.4902C113.19 41.8327 113.509 41.263 113.926 40.7812C114.342 40.293 114.847 39.9154 115.439 39.6484C116.032 39.375 116.696 39.2383 117.432 39.2383C118.174 39.2383 118.841 39.375 119.434 39.6484C120.033 39.9154 120.54 40.293 120.957 40.7812C121.38 41.263 121.702 41.8327 121.924 42.4902C122.145 43.1413 122.256 43.8477 122.256 44.6094V44.834C122.256 45.5957 122.145 46.3021 121.924 46.9531C121.702 47.6042 121.38 48.1738 120.957 48.6621C120.54 49.1439 120.036 49.5215 119.443 49.7949C118.857 50.0618 118.193 50.1953 117.451 50.1953C116.709 50.1953 116.042 50.0618 115.449 49.7949C114.857 49.5215 114.349 49.1439 113.926 48.6621C113.509 48.1738 113.19 47.6042 112.969 46.9531C112.747 46.3021 112.637 45.5957 112.637 44.834ZM114.443 44.6094V44.834C114.443 45.3613 114.505 45.8594 114.629 46.3281C114.753 46.7904 114.938 47.2005 115.186 47.5586C115.439 47.9167 115.755 48.1999 116.133 48.4082C116.51 48.61 116.95 48.7109 117.451 48.7109C117.946 48.7109 118.379 48.61 118.75 48.4082C119.128 48.1999 119.44 47.9167 119.688 47.5586C119.935 47.2005 120.12 46.7904 120.244 46.3281C120.374 45.8594 120.439 45.3613 120.439 44.834V44.6094C120.439 44.0885 120.374 43.597 120.244 43.1348C120.12 42.666 119.932 42.2526 119.678 41.8945C119.43 41.5299 119.118 41.2435 118.74 41.0352C118.369 40.8268 117.933 40.7227 117.432 40.7227C116.937 40.7227 116.501 40.8268 116.123 41.0352C115.752 41.2435 115.439 41.5299 115.186 41.8945C114.938 42.2526 114.753 42.666 114.629 43.1348C114.505 43.597 114.443 44.0885 114.443 44.6094Z" fill="#202426"/>
</svg>
