<svg width="34" height="28" viewBox="0 0 34 28" fill="none" xmlns="http://www.w3.org/2000/svg">
<path d="M30.3333 24H27V9.41669L17 15.6667L6.99998 9.41669V24H3.66665V4.00002H5.66665L17 11.0834L28.3333 4.00002H30.3333M30.3333 0.666687H3.66665C1.81665 0.666687 0.333313 2.15002 0.333313 4.00002V24C0.333313 24.8841 0.684502 25.7319 1.30962 26.357C1.93474 26.9822 2.78259 27.3334 3.66665 27.3334H30.3333C31.2174 27.3334 32.0652 26.9822 32.6903 26.357C33.3155 25.7319 33.6666 24.8841 33.6666 24V4.00002C33.6666 3.11597 33.3155 2.26812 32.6903 1.643C32.0652 1.01788 31.2174 0.666687 30.3333 0.666687Z" fill="#788BBD"/>
</svg>
