<svg width="283" height="283" viewBox="0 0 283 283" fill="none" xmlns="http://www.w3.org/2000/svg">
<path d="M246.658 194.489C256.293 175.458 260.608 154.177 259.148 132.896C257.689 111.615 250.508 91.1229 238.365 73.5851C226.222 56.0474 209.568 42.1151 190.161 33.26C170.755 24.4049 149.317 20.9558 128.112 23.2772C106.908 25.5986 86.7238 33.6042 69.6928 46.4482C52.6619 59.2923 39.4163 76.4979 31.3553 96.2474C23.2943 115.997 20.7173 137.557 23.8965 158.65C27.0757 179.743 35.8931 199.586 49.4171 216.082" stroke="#B9C4E0" stroke-width="45" stroke-linecap="round"/>
<path d="M24.0413 159.116C27.2238 180.208 36.0442 200.049 49.5708 216.544C63.0974 233.038 80.8278 245.572 100.889 252.823C120.95 260.073 142.597 261.77 163.544 257.735C184.49 253.7 203.957 244.083 219.889 229.898C235.821 215.714 247.627 197.49 254.058 177.151C260.489 156.813 261.307 135.115 256.426 114.349C251.545 93.5838 241.146 74.5224 226.328 59.1785C211.509 43.8346 192.821 32.778 172.239 27.1768" stroke="#788BBD" stroke-width="45" stroke-linecap="round" stroke-linejoin="round"/>
</svg>
